<?xml version="1.0" encoding="utf-8"?>
<!-- Generator: Adobe Illustrator 22.0.1, SVG Export Plug-In . SVG Version: 6.00 Build 0)  -->
<svg version="1.1" id="ic_zcct" xmlns="http://www.w3.org/2000/svg" xmlns:xlink="http://www.w3.org/1999/xlink" x="0px" y="0px"
	 viewBox="0 0 24 24" style="enable-background:new 0 0 24 24;" xml:space="preserve">
<style type="text/css">
	.st0{fill:none;}
	.st1{fill:#E84621;}
	.st2{fill:#019CB6;}
	.st3{fill:#E74622;}
	.st4{fill:#30A369;}
	.st5{fill:#F8AE01;}
</style>
<path id="Rectangle_4542" class="st0" d="M0,0h24v24H0V0z"/>
<g>
	<g>
		<g>
			<g>
				<path class="st1" d="M19.8,4.2C17.7,2.1,14.9,1,12,1C9.3,1,6.7,2,4.7,3.8c-0.1,0.1-0.1,0.3,0,0.5c0.1,0.1,0.3,0.1,0.5,0
					C7,2.6,9.5,1.6,12,1.6c5.7,0,10.4,4.6,10.4,10.4S17.7,22.4,12,22.4S1.6,17.7,1.6,12c0-2.5,0.9-5,2.6-6.9c0.1-0.1,0.1-0.3,0-0.5
					c-0.1-0.1-0.3-0.1-0.5,0C2,6.7,1,9.3,1,12c0,2.9,1.1,5.7,3.2,7.8C6.3,21.9,9.1,23,12,23s5.7-1.1,7.8-3.2
					c2.1-2.1,3.2-4.8,3.2-7.8S21.9,6.3,19.8,4.2z"/>
			</g>
		</g>
	</g>
</g>
<g>
	<g id="Layer_1_2_">
	</g>
	<g>
		<path class="st2" d="M7.7,7.8c0,0.2-0.1,0.5-0.1,0.8c-0.1,0.5-0.2,1-0.2,1.5c0,0,0,0.1,0,0.1c0.4,0.6,0.8,1.1,1.2,1.7
			c0,0,0.1,0.1,0.1,0.1c0.7,0.1,1.3,0.2,2,0.3c0.4,0.1,0.6,0.3,0.5,0.7c-0.1,0.7-0.2,1.3-0.3,2c0,0.1,0,0.2-0.1,0.3
			c-0.1,0.3-0.3,0.4-0.6,0.4c-0.7-0.1-1.5-0.2-2.2-0.4c-0.3-0.1-0.5-0.3-0.5-0.7c0.1-0.7,0.2-1.5,0.4-2.2c0-0.1,0-0.2-0.1-0.3
			c-0.4-0.5-0.7-1-1.1-1.5c0,0-0.1-0.1-0.2-0.1c-0.7-0.1-1.4-0.2-2.1-0.3C4.2,10.1,4,9.9,4,9.5C4.2,8.8,4.3,8,4.4,7.3
			C4.5,7,4.7,6.8,5,6.8C5.8,7,6.5,7.1,7.3,7.2C7.6,7.3,7.7,7.5,7.7,7.8z"/>
		<path class="st3" d="M14.8,16.5c-0.2,0-0.5-0.1-0.8-0.1c-0.5-0.1-1-0.1-1.4-0.2c-0.2,0-0.3,0-0.5,0.1c-0.4,0.3-0.9,0.7-1.3,1
			c-0.1,0.1-0.1,0.1-0.1,0.2c-0.1,0.7-0.2,1.4-0.3,2c-0.1,0.3-0.3,0.5-0.7,0.5c-0.7-0.1-1.5-0.2-2.2-0.4c-0.3-0.1-0.5-0.3-0.5-0.6
			c0.1-0.7,0.2-1.4,0.3-2.2c0-0.2,0.1-0.4,0.3-0.5c0.1,0,0.2-0.1,0.3-0.1c0.7,0.1,1.5,0.2,2.2,0.4c0,0,0.1,0,0.2,0
			c0.6-0.4,1.1-0.8,1.6-1.2c0,0,0.1-0.1,0.1-0.2c0.1-0.7,0.2-1.3,0.3-2c0.1-0.3,0.3-0.5,0.7-0.5c0.7,0.1,1.5,0.2,2.2,0.4
			c0.3,0.1,0.5,0.3,0.5,0.7c-0.1,0.7-0.2,1.4-0.3,2.1C15.3,16.3,15.1,16.5,14.8,16.5z"/>
		<path class="st4" d="M13.8,8.4c0.3,0,0.6,0.1,0.9,0.1c0.4,0.1,0.9,0.1,1.3,0.2c0.4,0.1,0.6,0.3,0.5,0.7c-0.1,0.7-0.2,1.5-0.4,2.2
			c0,0,0,0.1,0,0.1c0.4,0.6,0.8,1.1,1.2,1.7c0,0,0.1,0.1,0.1,0.1c0.7,0.1,1.3,0.2,2,0.3c0.3,0.1,0.5,0.3,0.5,0.6
			c-0.1,0.7-0.2,1.5-0.4,2.2c-0.1,0.3-0.3,0.5-0.7,0.5c-0.7-0.1-1.3-0.2-2-0.3c-0.1,0-0.1,0-0.2,0c-0.3-0.1-0.5-0.3-0.5-0.7
			c0.1-0.7,0.2-1.4,0.4-2.1c0-0.2,0-0.3-0.1-0.4c-0.3-0.5-0.7-0.9-1-1.4c0,0-0.1-0.1-0.2-0.1c-0.7-0.1-1.4-0.2-2.1-0.3
			c-0.3-0.1-0.5-0.3-0.5-0.7c0.1-0.7,0.2-1.5,0.4-2.2C13.2,8.5,13.4,8.4,13.8,8.4z"/>
		<path class="st5" d="M8.4,10.4c0-0.2,0.1-0.5,0.1-0.7c0.1-0.5,0.2-1.1,0.3-1.6c0-0.3,0.3-0.5,0.6-0.4c0.7,0.1,1.4,0.2,2.2,0.3
			c0.1,0,0.2,0,0.3-0.1c0.5-0.4,1-0.8,1.6-1.2c0.1-0.1,0.1-0.1,0.1-0.2c0.1-0.7,0.2-1.3,0.3-2c0-0.3,0.3-0.5,0.6-0.5
			c0.7,0.1,1.5,0.2,2.2,0.4c0.3,0.1,0.5,0.3,0.5,0.6c-0.1,0.7-0.2,1.5-0.4,2.2c-0.1,0.3-0.3,0.5-0.6,0.5c-0.7-0.1-1.5-0.2-2.2-0.4
			c-0.1,0-0.2,0-0.3,0.1c-0.5,0.4-1,0.7-1.4,1.1c-0.1,0.1-0.1,0.1-0.1,0.2c-0.1,0.7-0.2,1.4-0.3,2.1c-0.1,0.3-0.3,0.5-0.7,0.5
			c-0.7-0.1-1.5-0.2-2.2-0.4C8.6,11,8.4,10.7,8.4,10.4z"/>
	</g>
</g>
</svg>
