<?xml version="1.0" encoding="utf-8"?>
<!-- Generator: Adobe Illustrator 22.0.1, SVG Export Plug-In . SVG Version: 6.00 Build 0)  -->
<svg version="1.1" id="Layer_1" xmlns="http://www.w3.org/2000/svg" xmlns:xlink="http://www.w3.org/1999/xlink" x="0px" y="0px"
     viewBox="0 0 42.8 37.8" style="enable-background:new 0 0 42.8 37.8;" xml:space="preserve">
<style type="text/css">
    .st0{fill:#B2B2B2;}
</style>
<title>img-nav-logo</title>
<g>
    <path class="st0" d="M12,9.4c0,0.5-0.2,1.1-0.3,1.7c-0.2,1.1-0.4,2.2-0.5,3.3c0,0.1,0,0.2,0,0.3l2.7,3.7c0.1,0.1,0.2,0.1,0.3,0.2
        l4.3,0.7c0.7,0,1.2,0.6,1.2,1.2c0,0.1,0,0.2,0,0.3c-0.2,1.4-0.5,2.9-0.7,4.3v0.7c-0.2,0.6-0.7,1-1.3,0.9l-5-0.8
        c-0.7-0.1-1.1-0.8-1-1.4c0,0,0,0,0,0c0.3-1.6,0.5-3.3,0.8-4.9c0.1-0.2,0.1-0.5,0-0.7L10,15.5c-0.1-0.1-0.2-0.2-0.4-0.2l-4.6-0.8
        c-0.7-0.1-1.2-0.7-1.1-1.3C4,13.1,4,13,4,13c0.3-1.6,0.5-3.3,0.8-4.9c0.1-0.6,0.7-1.1,1.4-1l5,0.8C11.8,8.2,12.1,8.8,12,9.4z"/>
    <path class="st0" d="M27.6,28.5l-1.7-0.3c-1.1-0.2-2.1-0.3-3.3-0.6c-0.4-0.1-0.8,0-1.1,0.3l-3,2.2c-0.2,0.1-0.2,0.3-0.3,0.4
        l-0.7,4.5c-0.1,0.7-0.7,1.2-1.3,1.1c0,0-0.1,0-0.1,0l-4.9-0.8c-0.6-0.1-1.1-0.6-1-1.2c0-0.1,0-0.1,0-0.2c0.2-1.6,0.5-3.3,0.8-4.7
        c0-0.5,0.3-0.9,0.7-1.1c0.2-0.1,0.5-0.1,0.7,0l4.9,0.8c0.1,0.1,0.2,0.1,0.3,0c1.2-0.9,2.4-1.7,3.6-2.7c0.1-0.1,0.2-0.2,0.2-0.3
        l0.7-4.3c0.1-0.7,0.6-1.2,1.3-1.1c0.1,0,0.1,0,0.2,0l4.8,0.8c0.7,0.1,1.2,0.7,1.1,1.4c0,0,0,0.1,0,0.1c-0.3,1.5-0.5,3.1-0.8,4.7
        C28.6,28.1,28.1,28.5,27.6,28.5z"/>
    <path class="st0" d="M25.3,10.6l2,0.3l2.9,0.5c0.7,0.1,1.2,0.7,1.2,1.3c0,0.1,0,0.1,0,0.2l-0.8,4.8c0,0.1,0,0.2,0,0.3
        c0.9,1.2,1.8,2.5,2.7,3.7c0.1,0,0.2,0,0.3,0l4.4,0.8c0.7,0.1,1.1,0.6,1.1,1.3c0,0,0,0.1,0,0.1l-0.8,4.9c-0.1,0.7-0.6,1.1-1.3,1.1
        c-0.1,0-0.1,0-0.2,0c-1.5-0.2-2.9-0.5-4.4-0.7h-0.4c-0.7-0.1-1.2-0.7-1.1-1.4c0,0,0-0.1,0-0.1c0.3-1.6,0.5-3.3,0.8-4.7
        c0.1-0.4,0-0.7-0.3-1l-2.3-3c-0.1-0.1-0.2-0.2-0.3-0.2L24.1,18c-0.7-0.1-1.1-0.7-1-1.4c0,0,0,0,0-0.1c0.3-1.6,0.5-3.3,0.8-4.9
        C24,10.9,24.6,10.5,25.3,10.6C25.3,10.6,25.3,10.6,25.3,10.6z"/>
    <path class="st0" d="M13.4,15.2c0-0.5,0.2-1,0.3-1.6c0.2-1.2,0.4-2.3,0.6-3.5c0.1-0.6,0.7-1.1,1.3-1c0,0,0,0,0,0l4.7,0.9
        c0.2,0.1,0.4,0.1,0.6,0c1.2-0.9,2.3-1.7,3.5-2.5c0.1-0.1,0.2-0.3,0.3-0.5l0.7-4.3c0.1-0.7,0.7-1.1,1.4-1l5,0.8
        c0.6,0.1,1.1,0.7,1,1.3c0,0,0,0.1,0,0.1l-0.8,4.9c-0.1,0.6-0.7,1.1-1.3,1c0,0,0,0-0.1,0L25.6,9c-0.2-0.1-0.5,0-0.7,0.2l-3.3,2.3
        c-0.2,0.1-0.2,0.3-0.3,0.4c-0.2,1.5-0.5,3-0.7,4.5c-0.1,0.7-0.7,1.2-1.4,1.1c0,0,0,0-0.1,0l-4.7-1C13.8,16.5,13.4,15.9,13.4,15.2z"
        />
</g>
</svg>
