<?xml version="1.0" encoding="UTF-8" standalone="no"?>
<!DOCTYPE svg PUBLIC "-//W3C//DTD SVG 1.1//EN" "http://www.w3.org/Graphics/SVG/1.1/DTD/svg11.dtd">
<svg version="1.1" xmlns="http://www.w3.org/2000/svg" xmlns:xlink="http://www.w3.org/1999/xlink" preserveAspectRatio="xMidYMid meet" viewBox="0 0 640 640" width="640" height="640"><defs><path d="M225.07 214.4C222.93 225.07 221.87 236.8 219.73 247.47C219.73 248.53 219.73 249.6 220.8 249.6C229.33 261.33 238.93 274.13 247.47 285.87C248.53 286.93 249.6 286.93 249.6 286.93C263.47 289.07 278.4 292.27 292.27 294.4C300.8 295.47 304 300.8 302.93 309.33C300.8 323.2 298.67 338.13 295.47 352C295.47 354.13 294.4 356.27 294.4 358.4C293.33 363.73 286.93 368 281.6 366.93C265.6 364.8 248.53 361.6 232.53 359.47C225.07 358.4 220.8 352 222.93 345.6C225.07 329.6 228.27 313.6 230.4 297.6C230.4 294.4 230.4 293.33 229.33 291.2C221.87 280.53 213.33 269.87 205.87 259.2C204.8 258.13 203.73 257.07 202.67 257.07C187.73 254.93 172.8 251.73 157.87 249.6C150.4 248.53 146.13 242.13 147.2 234.67C149.33 218.67 152.53 202.67 154.67 186.67C155.73 180.27 161.07 176 168.53 177.07C184.53 179.2 201.6 182.4 217.6 185.6C222.93 185.6 227.2 190.93 227.2 197.33C226.13 202.67 225.07 208 225.07 214.4Z" id="b9eRA1jBB"></path><path d="M364.8 384C354.13 381.87 343.47 380.8 333.87 378.67C329.6 377.6 326.4 378.67 323.2 381.87C313.6 389.33 304 396.8 293.33 403.2C291.2 404.27 291.2 405.33 291.2 407.47C289.07 422.4 285.87 437.33 283.73 452.27C282.67 459.73 277.33 464 269.87 462.93C253.87 460.8 237.87 457.6 221.87 455.47C214.4 454.4 210.13 449.07 211.2 441.6C213.33 425.6 216.53 410.67 218.67 394.67C219.73 390.4 220.8 386.13 225.07 384C227.2 382.93 230.4 382.93 232.53 382.93C248.53 385.07 264.53 388.27 280.53 390.4C281.6 390.4 282.67 390.4 283.73 389.33C295.47 380.8 308.27 372.27 320 362.67C321.07 361.6 322.13 360.53 322.13 359.47C324.27 345.6 326.4 330.67 329.6 316.8C330.67 309.33 336 305.07 344.53 306.13C360.53 308.27 376.53 311.47 392.53 313.6C400 314.67 404.27 321.07 403.2 328.53C401.07 343.47 397.87 359.47 395.73 374.4C392.53 381.87 388.27 387.2 380.8 386.13C375.47 385.07 370.13 384 364.8 384Z" id="d2p82PRwn"></path><path d="M377.6 213.33C387.2 214.4 396.8 216.53 406.4 217.6C414.93 218.67 419.2 225.07 417.07 232.53C414.93 248.53 411.73 264.53 409.6 280.53C409.6 281.6 409.6 282.67 410.67 282.67C419.2 295.47 428.8 307.2 437.33 318.93C438.4 320 439.47 320 439.47 320C454.4 322.13 468.27 325.33 483.2 327.47C490.67 328.53 494.93 333.87 493.87 341.33C491.73 357.33 488.53 373.33 486.4 389.33C485.33 396.8 480 401.07 472.53 400C457.6 397.87 443.73 395.73 428.8 392.53C427.73 392.53 425.6 392.53 424.53 391.47C417.07 390.4 412.8 384 413.87 376.53C416 360.53 418.13 345.6 421.33 329.6C422.4 325.33 421.33 323.2 419.2 320C411.73 310.4 404.27 299.73 396.8 290.13C395.73 289.07 394.67 288 393.6 288C378.67 285.87 363.73 282.67 347.73 280.53C340.27 279.47 336 274.13 338.13 266.67C340.27 250.67 343.47 234.67 345.6 218.67C345.6 213.33 350.93 210.13 358.4 210.13C364.8 211.2 371.2 212.27 377.6 213.33Z" id="flCcszJk"></path><path d="M243.2 238.93C245.33 227.2 247.47 215.47 248.53 204.8C249.6 198.4 254.93 194.13 261.33 195.2C277.33 197.33 293.33 200.53 308.27 202.67C310.4 202.67 312.53 202.67 314.67 201.6C326.4 193.07 337.07 184.53 348.8 176C349.87 174.93 350.93 173.87 350.93 171.73C353.07 157.87 355.2 142.93 357.33 129.07C358.4 122.67 364.8 117.33 371.2 118.4C387.2 120.53 404.27 123.73 420.27 126.93C426.67 128 430.93 134.4 429.87 140.8C427.73 156.8 424.53 172.8 422.4 188.8C421.33 195.2 416 200.53 408.53 198.4C392.53 196.27 376.53 193.07 359.47 190.93C356.27 189.87 355.2 190.93 353.07 193.07C342.4 200.53 331.73 208 322.13 216.53C321.07 217.6 320 218.67 320 220.8C317.87 235.73 314.67 250.67 312.53 265.6C311.47 273.07 305.07 277.33 298.67 276.27C282.67 274.13 266.67 270.93 250.67 268.8C245.33 266.67 241.07 261.33 241.07 254.93C242.13 249.6 243.2 244.27 243.2 238.93Z" id="a6MUdHTFN"></path></defs><g><g><g><use xlink:href="#b9eRA1jBB" opacity="1" fill="#797979" fill-opacity="1"></use><g><use xlink:href="#b9eRA1jBB" opacity="1" fill-opacity="0" stroke="#000000" stroke-width="1" stroke-opacity="0"></use></g></g><g><use xlink:href="#d2p82PRwn" opacity="1" fill="#797979" fill-opacity="1"></use><g><use xlink:href="#d2p82PRwn" opacity="1" fill-opacity="0" stroke="#000000" stroke-width="1" stroke-opacity="0"></use></g></g><g><use xlink:href="#flCcszJk" opacity="1" fill="#797979" fill-opacity="1"></use><g><use xlink:href="#flCcszJk" opacity="1" fill-opacity="0" stroke="#000000" stroke-width="1" stroke-opacity="0"></use></g></g><g><use xlink:href="#a6MUdHTFN" opacity="1" fill="#797979" fill-opacity="1"></use><g><use xlink:href="#a6MUdHTFN" opacity="1" fill-opacity="0" stroke="#000000" stroke-width="1" stroke-opacity="0"></use></g></g></g></g></svg>