<?xml version="1.0" encoding="utf-8"?>
<!-- Generator: Adobe Illustrator 22.0.1, SVG Export Plug-In . SVG Version: 6.00 Build 0)  -->
<svg version="1.1" id="ic_empty_Dark_transactions" xmlns="http://www.w3.org/2000/svg" xmlns:xlink="http://www.w3.org/1999/xlink"
	 x="0px" y="0px" viewBox="0 0 100 100" style="enable-background:new 0 0 100 100;" xml:space="preserve">
<style type="text/css">
	.st0{fill:none;}
	.st1{fill:#413D4A;}
	.st2{fill:#A09EA5;}
</style>
<path id="Rectangle_4697" class="st0" d="M0,0h100v100H0V0z"/>
<g>
	<path id="Path_18988" class="st1" d="M50,26c-13.3,0-24,10.7-24,24s10.7,24,24,24s24-10.7,24-24S63.3,26,50,26z M50,68
		c-9.9,0-18-8.1-18-18s8.1-18,18-18s18,8.1,18,18S59.9,68,50,68z"/>
	<g id="Group_9034">
		<path id="Path_18990" class="st2" d="M50,31c-10.5,0-19,8.5-19,19s8.5,19,19,19s19-8.5,19-19C69,39.5,60.5,31,50,31z M50,67
			c-9.4,0-17-7.6-17-17s7.6-17,17-17s17,7.6,17,17C67,59.4,59.4,67,50,67z"/>
		<path id="Rectangle_4693" class="st2" d="M83,56h2v4h-2V56z"/>
		<path id="Rectangle_4694" class="st2" d="M83,44h2v8h-2V44z"/>
		<path id="Rectangle_4695" class="st2" d="M15,48h2v8h-2V48z"/>
		<path id="Rectangle_4696" class="st2" d="M15,40h2v4h-2V40z"/>
		<path id="Path_18991" class="st2" d="M95.2,71H85v-7h-2v9h7.8L76,90.5L61.2,73H68v-2h-4.5c11.6-7.5,15-22.9,7.5-34.5
			c-6.4-9.9-18.9-14-29.9-9.8L24,6.5L4.8,29H15v7h2v-9H9.2L24,9.5L38.8,27H32v2h4.5c-11.6,7.5-15,22.9-7.5,34.5
			c6.4,9.9,18.9,14,29.9,9.8L76,93.5L95.2,71z M27,50c0-12.7,10.3-23,23-23s23,10.3,23,23S62.7,73,50,73C37.3,73,27,62.7,27,50z"/>
	</g>
	<g>
		<g id="Layer_1_2_">
		</g>
		<g>
			<path class="st2" d="M43.8,43.8c-0.1,0.3-0.1,0.7-0.2,1.1c-0.1,0.7-0.2,1.5-0.4,2.2c0,0,0,0.1,0,0.2c0.6,0.8,1.2,1.6,1.8,2.4
				c0,0,0.1,0.1,0.2,0.1c1,0.2,1.9,0.3,2.9,0.5c0.5,0.1,0.8,0.4,0.7,1c-0.1,1-0.3,1.9-0.5,2.9c0,0.1,0,0.3-0.1,0.4
				c-0.1,0.4-0.5,0.6-0.9,0.6c-1.1-0.2-2.2-0.4-3.2-0.5c-0.5-0.1-0.8-0.5-0.7-0.9c0.2-1.1,0.3-2.1,0.5-3.2c0-0.2,0-0.3-0.1-0.4
				c-0.5-0.7-1-1.4-1.6-2.1c0-0.1-0.1-0.1-0.2-0.1c-1-0.2-2-0.3-3-0.5c-0.5-0.1-0.8-0.5-0.7-1c0.2-1.1,0.3-2.1,0.5-3.2
				c0.1-0.4,0.5-0.7,0.9-0.7c1.1,0.2,2.2,0.4,3.3,0.5C43.5,43,43.8,43.4,43.8,43.8z"/>
			<path class="st2" d="M54,56.4c-0.3-0.1-0.7-0.1-1.1-0.2c-0.7-0.1-1.4-0.2-2.1-0.4c-0.3-0.1-0.5,0-0.7,0.2c-0.6,0.5-1.3,1-2,1.4
				c-0.1,0.1-0.2,0.2-0.2,0.3c-0.2,1-0.3,2-0.5,2.9c-0.1,0.5-0.5,0.8-1,0.7c-1.1-0.2-2.1-0.3-3.2-0.5c-0.5-0.1-0.8-0.5-0.7-0.9
				c0.2-1,0.3-2.1,0.5-3.1c0-0.3,0.2-0.6,0.5-0.7c0.1-0.1,0.3-0.1,0.5-0.1c1.1,0.2,2.1,0.3,3.2,0.5c0.1,0,0.2,0,0.2,0
				c0.8-0.6,1.6-1.2,2.4-1.7c0.1,0,0.1-0.1,0.1-0.2c0.2-1,0.3-1.9,0.5-2.9c0.1-0.5,0.5-0.8,1-0.7c1.1,0.2,2.1,0.3,3.2,0.5
				c0.5,0.1,0.8,0.5,0.7,1c-0.2,1-0.3,2.1-0.5,3.1C54.9,56.1,54.5,56.4,54,56.4z"/>
			<path class="st2" d="M52.5,44.6c0.4,0.1,0.8,0.1,1.3,0.2c0.6,0.1,1.3,0.2,1.9,0.3c0.5,0.1,0.8,0.5,0.7,1
				c-0.2,1.1-0.3,2.1-0.5,3.2c0,0.1,0,0.1,0,0.2c0.6,0.8,1.2,1.6,1.8,2.4c0,0,0.1,0.1,0.2,0.1c1,0.2,1.9,0.3,2.9,0.5
				c0.5,0.1,0.8,0.5,0.7,0.9c-0.2,1.1-0.3,2.1-0.5,3.2c-0.1,0.5-0.4,0.8-0.9,0.7c-1-0.1-1.9-0.3-2.9-0.5c-0.1,0-0.2,0-0.3,0
				c-0.5-0.1-0.8-0.5-0.7-1c0.2-1,0.3-2.1,0.5-3.1c0.1-0.3,0-0.4-0.2-0.6c-0.5-0.7-1-1.3-1.5-2c0-0.1-0.1-0.1-0.2-0.1
				c-1-0.2-2-0.3-3-0.5c-0.5-0.1-0.7-0.5-0.7-0.9c0.2-1.1,0.3-2.1,0.5-3.2C51.7,44.9,52.1,44.6,52.5,44.6z"/>
			<path class="st2" d="M44.8,47.6c0-0.3,0.1-0.7,0.2-1c0.1-0.8,0.3-1.5,0.4-2.3c0.1-0.4,0.5-0.7,0.9-0.7c1,0.2,2.1,0.3,3.1,0.5
				c0.1,0,0.3,0,0.4-0.1c0.8-0.6,1.5-1.1,2.3-1.7c0.1-0.1,0.2-0.2,0.2-0.3c0.1-1,0.3-1.9,0.5-2.9c0.1-0.4,0.5-0.7,0.9-0.7
				c1.1,0.2,2.2,0.4,3.3,0.5c0.5,0.1,0.7,0.5,0.7,0.9c-0.2,1.1-0.3,2.1-0.5,3.2c-0.1,0.5-0.4,0.7-0.9,0.7c-1.1-0.2-2.2-0.3-3.2-0.5
				c-0.2,0-0.3,0-0.5,0.1c-0.7,0.5-1.4,1-2.1,1.5c-0.1,0.1-0.2,0.2-0.2,0.3c-0.2,1-0.3,2-0.5,3c-0.1,0.5-0.5,0.8-1,0.7
				c-1.1-0.2-2.1-0.3-3.2-0.5C45,48.4,44.8,48.1,44.8,47.6z"/>
		</g>
	</g>
</g>
</svg>
