<?xml version="1.0" encoding="utf-8"?>
<!-- Generator: Adobe Illustrator 22.0.1, SVG Export Plug-In . SVG Version: 6.00 Build 0)  -->
<svg version="1.1" id="ic_empty_dark_multisend" xmlns="http://www.w3.org/2000/svg" xmlns:xlink="http://www.w3.org/1999/xlink"
	 x="0px" y="0px" viewBox="0 0 100 100" style="enable-background:new 0 0 100 100;" xml:space="preserve">
<style type="text/css">
	.st0{fill:none;}
	.st1{fill:#413D4A;}
	.st2{fill:#A09EA5;}
</style>
<path id="Rectangle_4724" class="st0" d="M0,0h100v100H0V0z"/>
<path id="Rectangle_4717" class="st1" d="M45,18h10v9H45V18z"/>
<g id="Group_9059">
	<path id="Rectangle_4718" class="st1" d="M14,66h6v10h-6V66z"/>
	<path id="Rectangle_4719" class="st1" d="M80,66h6v10h-6V66z"/>
	<path id="Rectangle_4720" class="st1" d="M47,66h6v10h-6V66z"/>
</g>
<path id="Rectangle_4722" class="st2" d="M67,40h2v4h-2V40z"/>
<circle id="Ellipse_643" class="st2" cx="50" cy="73" r="1"/>
<circle id="Ellipse_644" class="st2" cx="83" cy="73" r="1"/>
<path id="Rectangle_4723" class="st2" d="M32,58h4v2h-4V58z"/>
<path id="Path_19007" class="st2" d="M16,65h-3v3H7v4h2v-2h4v7h8v-7h4v21H9V76H7v17h20V68h-6v-3h-3v-5h10v-2H16V65z M19,67v8h-4v-8
	H19z"/>
<circle id="Ellipse_645" class="st2" cx="17" cy="73" r="1"/>
<path id="Path_19008" class="st2" d="M87,68v-3h-3v-7H51v-5h18v-5h-2v3H33V28h34v8h2v-8h4V17H59.5c2.2-2.5,2-6.3-0.5-8.5
	s-6.3-2-8.5,0.5c-0.2,0.2-0.4,0.5-0.5,0.7c-1.8-2.8-5.5-3.5-8.3-1.7c-2.8,1.8-3.5,5.5-1.7,8.3c0.2,0.3,0.4,0.5,0.6,0.7H27v11h4v25
	h18v5h-9v2h9v5h-3v3h-6v16h2V70h4v7h8v-7h4v21H42v-3h-2v5h20V68h-6v-3h-3v-5h31v5h-3v3h-6v12h2V70h4v7h8v-7h4v21H75v-7h-2v9h20V68
	H87z M71,19v7H56v-7H71z M51,13c0-2.2,1.8-4,4-4s4,1.8,4,4s-1.8,4-4,4h-4V13z M51,19h3v7h-8v-7H51z M45,9c2.2,0,4,1.8,4,4v4h-4
	c-2.2,0-4-1.8-4-4S42.8,9,45,9z M29,26v-7h15v7H29z M52,67v8h-4v-8H52z M85,75h-4v-8h4V75z"/>
<g>
	<g id="Layer_1_2_">
	</g>
	<g>
		<path class="st2" d="M44.4,33.5c0,0.3-0.1,0.7-0.2,1c-0.1,0.7-0.2,1.3-0.3,2c0,0,0,0.1,0,0.1c0.5,0.7,1.1,1.5,1.6,2.2
			c0,0,0.1,0.1,0.2,0.1c0.9,0.1,1.7,0.3,2.6,0.4c0.5,0.1,0.7,0.4,0.7,0.9c-0.1,0.9-0.3,1.7-0.4,2.6c0,0.1,0,0.3-0.1,0.4
			c-0.1,0.4-0.4,0.6-0.8,0.5c-1-0.2-2-0.3-3-0.5c-0.4-0.1-0.7-0.4-0.6-0.9c0.2-1,0.3-1.9,0.5-2.9c0-0.2,0-0.3-0.1-0.4
			c-0.5-0.6-0.9-1.3-1.4-1.9c0-0.1-0.1-0.1-0.2-0.1c-0.9-0.2-1.8-0.3-2.7-0.5c-0.5-0.1-0.7-0.4-0.6-0.9c0.2-1,0.3-1.9,0.5-2.9
			c0.1-0.4,0.4-0.7,0.8-0.6c1,0.2,2,0.3,3,0.5C44.1,32.7,44.4,33,44.4,33.5z"/>
		<path class="st2" d="M53.7,44.9c-0.3,0-0.6-0.1-1-0.2c-0.6-0.1-1.3-0.2-1.9-0.3c-0.3-0.1-0.4,0-0.6,0.2c-0.6,0.4-1.2,0.9-1.8,1.3
			c-0.1,0.1-0.1,0.2-0.2,0.3c-0.1,0.9-0.3,1.8-0.4,2.7c-0.1,0.5-0.4,0.7-0.9,0.6c-1-0.2-1.9-0.3-2.9-0.5c-0.4-0.1-0.7-0.4-0.6-0.8
			c0.1-0.9,0.3-1.9,0.5-2.8c0-0.3,0.1-0.5,0.4-0.6c0.1-0.1,0.3-0.1,0.4-0.1c1,0.1,2,0.3,2.9,0.5c0.1,0,0.1,0,0.2,0
			c0.7-0.5,1.5-1.1,2.2-1.6c0.1,0,0.1-0.1,0.1-0.2c0.1-0.9,0.3-1.7,0.4-2.6c0.1-0.5,0.4-0.7,0.9-0.6c1,0.2,1.9,0.3,2.9,0.5
			c0.5,0.1,0.7,0.4,0.6,0.9c-0.2,0.9-0.3,1.9-0.5,2.8C54.4,44.6,54.1,44.9,53.7,44.9z"/>
		<path class="st2" d="M52.3,34.2c0.4,0.1,0.8,0.1,1.2,0.2c0.6,0.1,1.2,0.2,1.7,0.3c0.5,0.1,0.7,0.4,0.7,0.9c-0.2,1-0.3,1.9-0.5,2.9
			c0,0,0,0.1,0,0.2c0.5,0.7,1.1,1.5,1.6,2.2c0,0,0.1,0.1,0.2,0.1c0.9,0.2,1.8,0.3,2.6,0.4c0.4,0.1,0.7,0.4,0.6,0.9
			c-0.2,1-0.3,1.9-0.5,2.9c-0.1,0.5-0.4,0.7-0.9,0.6c-0.9-0.1-1.7-0.3-2.6-0.4c-0.1,0-0.2,0-0.3,0c-0.5-0.1-0.7-0.4-0.6-0.9
			c0.2-0.9,0.3-1.9,0.5-2.8c0-0.3,0-0.4-0.2-0.6c-0.5-0.6-0.9-1.2-1.3-1.8c0-0.1-0.1-0.1-0.2-0.1c-0.9-0.2-1.8-0.3-2.8-0.5
			c-0.4-0.1-0.7-0.4-0.6-0.9c0.2-1,0.3-2,0.5-2.9C51.6,34.4,51.9,34.2,52.3,34.2z"/>
		<path class="st2" d="M45.2,36.9c0-0.3,0.1-0.6,0.2-1c0.1-0.7,0.2-1.4,0.3-2.1c0.1-0.4,0.4-0.7,0.8-0.6c1,0.2,1.9,0.3,2.9,0.5
			c0.1,0,0.2,0,0.4-0.1c0.7-0.5,1.4-1,2.1-1.5c0.1-0.1,0.1-0.1,0.2-0.3c0.1-0.9,0.3-1.7,0.4-2.6c0.1-0.4,0.4-0.7,0.8-0.6
			c1,0.2,2,0.3,3,0.5c0.4,0.1,0.7,0.4,0.6,0.9c-0.2,1-0.3,2-0.5,2.9c-0.1,0.4-0.4,0.7-0.8,0.6c-1-0.2-2-0.3-2.9-0.5
			c-0.2,0-0.3,0-0.4,0.1c-0.6,0.5-1.3,0.9-1.9,1.4c-0.1,0.1-0.1,0.1-0.2,0.3c-0.1,0.9-0.3,1.8-0.4,2.7c-0.1,0.4-0.4,0.7-0.9,0.6
			c-1-0.2-1.9-0.3-2.9-0.5C45.5,37.6,45.2,37.3,45.2,36.9z"/>
	</g>
</g>
</svg>
