<?xml version="1.0" encoding="utf-8"?>
<!-- Generator: Adobe Illustrator 22.0.1, SVG Export Plug-In . SVG Version: 6.00 Build 0)  -->
<svg version="1.1" id="Layer_1" xmlns="http://www.w3.org/2000/svg" xmlns:xlink="http://www.w3.org/1999/xlink" x="0px" y="0px"
	 viewBox="0 0 300 100" style="enable-background:new 0 0 300 100;" xml:space="preserve">
<style type="text/css">
	.st0{fill:#019CB6;}
	.st1{fill:#E74622;}
	.st2{fill:#30A369;}
	.st3{fill:#F8AE01;}
	.st4{fill:none;}
	.st5{fill:#E84621;}
	.st6{font-family:'AllerDisplay';}
	.st7{font-size:36px;}
</style>
<title>Artboard</title>
<desc>Created with Sketch.</desc>
<g>
	<g id="Layer_1_2_">
	</g>
	<g>
		<path class="st0" d="M34.1,29.4c-0.2,1.1-0.4,2.4-0.6,3.8c-0.4,2.5-0.8,5-1.2,7.6c0,0.2,0,0.4,0.1,0.5c2,2.8,4.1,5.6,6.1,8.3
			c0.1,0.2,0.4,0.3,0.6,0.3c3.2,0.5,6.5,1.1,9.7,1.6c1.8,0.3,2.8,1.5,2.5,3.3c-0.5,3.2-1.1,6.5-1.6,9.7c-0.1,0.5-0.1,1-0.3,1.5
			c-0.3,1.3-1.7,2.2-3,2c-3.7-0.6-7.4-1.2-11.1-1.8c-1.6-0.3-2.6-1.6-2.3-3.2c0.6-3.6,1.2-7.3,1.8-10.9c0.1-0.6,0-1-0.3-1.5
			c-1.8-2.4-3.6-4.8-5.3-7.2c-0.2-0.2-0.5-0.4-0.8-0.5c-3.4-0.6-6.8-1.1-10.2-1.7c-1.7-0.3-2.6-1.6-2.3-3.4
			c0.6-3.6,1.2-7.2,1.8-10.9c0.3-1.5,1.6-2.5,3.1-2.2c3.7,0.6,7.5,1.2,11.2,1.8C33.2,26.7,34.1,27.8,34.1,29.4z"/>
		<path class="st1" d="M69,72.2c-1.1-0.2-2.4-0.4-3.7-0.6c-2.4-0.4-4.7-0.7-7.1-1.2c-1-0.2-1.7,0.1-2.4,0.6
			c-2.2,1.7-4.4,3.3-6.7,4.9c-0.4,0.3-0.5,0.6-0.6,1c-0.5,3.3-1.1,6.7-1.6,10c-0.3,1.7-1.5,2.7-3.2,2.4c-3.6-0.6-7.3-1.2-10.9-1.8
			c-1.6-0.3-2.6-1.5-2.3-3.2c0.5-3.6,1.1-7.1,1.7-10.7c0.2-1.1,0.5-2,1.5-2.4c0.5-0.2,1.1-0.3,1.6-0.3c3.7,0.5,7.3,1.2,11,1.8
			c0.2,0,0.5,0,0.7-0.2c2.7-2,5.4-4,8.1-6c0.2-0.2,0.4-0.5,0.5-0.8c0.5-3.2,1.1-6.5,1.6-9.7c0.3-1.7,1.5-2.6,3.3-2.4
			c3.6,0.6,7.2,1.2,10.9,1.8c1.7,0.3,2.6,1.7,2.3,3.4c-0.6,3.5-1.1,7-1.7,10.5C71.7,71.2,70.7,72.2,69,72.2z"/>
		<path class="st2" d="M63.9,32.2c1.3,0.2,2.9,0.5,4.4,0.7c2.2,0.3,4.3,0.7,6.5,1.1c1.8,0.3,2.8,1.6,2.5,3.4
			c-0.6,3.6-1.2,7.2-1.7,10.8c0,0.2,0,0.4,0.1,0.6c2,2.8,4.1,5.6,6.1,8.3c0.1,0.2,0.4,0.3,0.6,0.3c3.3,0.6,6.6,1.1,9.9,1.6
			c1.7,0.3,2.6,1.5,2.3,3.2c-0.6,3.6-1.2,7.3-1.8,10.9c-0.3,1.7-1.5,2.6-3.2,2.3c-3.3-0.5-6.6-1.1-9.8-1.6c-0.3-0.1-0.7-0.1-1-0.2
			c-1.7-0.3-2.7-1.6-2.4-3.3c0.6-3.5,1.1-7,1.7-10.5c0.2-0.9-0.1-1.5-0.6-2.2c-1.7-2.3-3.3-4.6-5-6.8c-0.2-0.2-0.5-0.4-0.8-0.5
			c-3.4-0.6-6.9-1.1-10.3-1.7c-1.6-0.3-2.5-1.5-2.3-3.2c0.6-3.7,1.2-7.3,1.8-11C61.1,33.1,62.2,32.1,63.9,32.2z"/>
		<path class="st3" d="M37.3,42.4c0.2-1.1,0.4-2.3,0.6-3.6c0.4-2.6,0.9-5.2,1.3-7.8c0.2-1.4,1.6-2.5,3-2.2c3.6,0.6,7.1,1.1,10.7,1.7
			c0.5,0.1,0.9,0,1.4-0.3c2.6-1.9,5.2-3.8,7.8-5.7c0.3-0.3,0.5-0.5,0.6-1c0.5-3.2,1-6.5,1.6-9.7c0.2-1.5,1.6-2.5,3.1-2.3
			c3.7,0.6,7.4,1.2,11.1,1.8c1.6,0.3,2.5,1.6,2.3,3.2c-0.6,3.7-1.2,7.3-1.8,11c-0.3,1.6-1.5,2.5-3.1,2.3c-3.7-0.6-7.4-1.1-11-1.8
			c-0.7-0.1-1.1,0-1.5,0.4c-2.4,1.7-4.7,3.5-7.1,5.2c-0.3,0.3-0.5,0.5-0.6,1c-0.5,3.4-1.1,6.8-1.7,10.2c-0.3,1.6-1.6,2.6-3.3,2.3
			c-3.6-0.6-7.3-1.2-10.9-1.8C38.3,45,37.3,43.9,37.3,42.4z"/>
	</g>
</g>
<rect x="89" y="45.9" class="st4" width="198" height="38.1"/>
<text transform="matrix(1 0 0 1 101.3125 64.9307)" class="st5 st6 st7">CONCRETE</text>
</svg>
