<?xml version="1.0" encoding="utf-8"?>
<!-- Generator: Adobe Illustrator 22.0.1, SVG Export Plug-In . SVG Version: 6.00 Build 0)  -->
<svg version="1.1" id="Layer_1" xmlns="http://www.w3.org/2000/svg" xmlns:xlink="http://www.w3.org/1999/xlink" x="0px" y="0px"
	 viewBox="0 0 49 60" style="enable-background:new 0 0 49 60;" xml:space="preserve">
<style type="text/css">
	.st0{display:none;fill:#FFFFFF;}
	.st1{fill:#FFFFFF;}
	.st2{fill:#797979;}
</style>
<path id="Path_18616" class="st0" d="M24.5,5.8l-17,2.7L4,9.1v29.1c0,6.7,14.5,13.9,20.5,16.2c5.2-2,10-4.7,14.5-7.9
	c0.3-0.3,0.7-0.5,1-0.8c1.5-1.2,2.8-2.5,3.8-4.1c0.7-1,1-2.1,1.1-3.3V9.1L24.5,5.8z M14.6,21.2h11.9v2.5H14.6V21.2z M37.9,22.4
	c0,5.9-4.1,9.7-9.8,9.7h-7.8v12.4h-3.1V29.3h10.5c4.2,0,7-2.6,7-6.9c0-4.3-2.8-6.8-6.9-6.8h-3.3l-7.8,0v-2.8h11.5
	C33.8,12.8,37.9,16.5,37.9,22.4"/>
<path id="Path_18615" class="st1" d="M24.5,0L0,5.1v33.9c0,5,5.1,9.7,10.6,13.3c4.3,2.8,8.8,5.3,13.5,7.5l0.4,0.2l0.4-0.2
	c1-0.4,24.1-10.2,24.1-20.8V5.1L24.5,0z M47,39.1c0,7.4-15.9,15.2-22.5,17.8l-0.3-0.1l-0.1,0l-0.2-0.1l-0.1,0l-0.2-0.1l-0.1,0
	l-0.3-0.1l-0.1,0l-0.3-0.1l0,0L22.4,56h0L22,55.9h0c-4-1.7-7.8-3.8-11.4-6.2l-0.4-0.3l-0.4-0.3l-0.4-0.3l0,0l-0.4-0.3l0,0l-0.4-0.3
	l0,0L8,47.8l0,0l-0.4-0.3l0,0l-0.3-0.3l0,0l-0.3-0.3l0,0l-0.3-0.3l-0.1,0l-0.3-0.3L6,46.2l-0.3-0.3l-0.1-0.1l-0.3-0.2l-0.1-0.1
	l-0.2-0.2L5,45.2l-0.2-0.2l-0.1-0.1l-0.2-0.2l-0.1-0.1l-0.2-0.2l-0.1-0.1l-0.2-0.2l-0.1-0.1l-0.2-0.2l-0.1-0.1l-0.1-0.2l-0.1-0.1
	l-0.1-0.2l-0.1-0.2c0-0.1-0.1-0.1-0.1-0.2l-0.1-0.2c0-0.1-0.1-0.1-0.1-0.2L2.7,42c0-0.1-0.1-0.1-0.1-0.2c0-0.1,0-0.1-0.1-0.2
	c0-0.1-0.1-0.1-0.1-0.2c0-0.1,0-0.1-0.1-0.2c0-0.1,0-0.1-0.1-0.2c0-0.1,0-0.1,0-0.2c0,0,0-0.1,0-0.2c0-0.1,0-0.1,0-0.2
	c0,0,0-0.1,0-0.2s0-0.1,0-0.2c0,0,0-0.1,0-0.2c0,0,0-0.1,0-0.2s0-0.1,0-0.2c0-0.1,0-0.2,0-0.2c0-0.1,0-0.1,0-0.1V6.9l22.4-3.6h0.2
	L47,6.9L47,39.1L47,39.1z"/>
<path id="Path_18617" class="st1" d="M24.5,0L0,5.1v33.9c0,5,5.1,9.7,10.6,13.3c4.3,2.8,8.8,5.3,13.5,7.5l0.4,0.2v0l0.3-0.1
	c1-0.4,24.1-10.2,24.1-20.8V5.1L24.5,0z M47,39c0,7.4-15.9,15.2-22.5,17.8v0l-0.3-0.1l-0.1,0l-0.2-0.1l-0.1,0l-0.2-0.1l-0.1,0
	l-0.3-0.1l-0.1,0l-0.3-0.1l0,0L22.4,56h0L22,55.9h0c-3.9-1.7-7.7-3.8-11.3-6.2l-0.4-0.3L9.7,49l-0.4-0.3l0,0l-0.4-0.3l0,0l-0.4-0.3
	l0,0L8,47.8l0,0l-0.4-0.3l0,0l-0.3-0.3l0,0l-0.3-0.3l0,0l-0.3-0.3l-0.1,0l-0.3-0.3L6,46.1l-0.3-0.3l-0.1-0.1l-0.3-0.2l-0.1-0.1
	l-0.2-0.2L5,45.1l-0.2-0.2l-0.1-0.1l-0.2-0.2l-0.1-0.1l-0.2-0.2l-0.1-0.1l-0.2-0.2l-0.1-0.1l-0.2-0.2l-0.1-0.1l-0.2-0.2l-0.1-0.1
	l-0.1-0.2l-0.1-0.1c0-0.1-0.1-0.1-0.1-0.2l-0.1-0.2l-0.1-0.2L2.7,42c0-0.1-0.1-0.1-0.1-0.2c0-0.1,0-0.1-0.1-0.2
	c0-0.1-0.1-0.1-0.1-0.2c0-0.1,0-0.1-0.1-0.2c0-0.1,0-0.1-0.1-0.2c0-0.1,0-0.1,0-0.2c0-0.1,0-0.2,0-0.2c0-0.1,0-0.1,0-0.2
	c0,0,0-0.1,0-0.2s0-0.1,0-0.2c0,0,0-0.1,0-0.2c0,0,0-0.1,0-0.2s0-0.1,0-0.2c0-0.1,0-0.2,0-0.2c0-0.1,0-0.1,0-0.1V6.9l22.4-3.6h0.2
	L47,6.9L47,39z"/>
<path id="Path_18618" class="st1" d="M24.5,5.8l-17,2.7L4,9.1v29.1c0,6.7,14.5,13.9,20.5,16.2c5.2-2,10-4.7,14.5-7.9
	c0.3-0.3,0.7-0.5,1-0.8c1.5-1.2,2.8-2.5,3.8-4.1c-2-0.1-2-0.1,0,0c0.7-1,1-2.1,1.1-3.3V9.1L24.5,5.8z"/>
<g>
	<g id="Layer_1_2_">
	</g>
	<g>
		<path class="st2" d="M15.8,18.5c-0.1,0.5-0.2,1-0.2,1.6c-0.2,1-0.3,2.1-0.5,3.1c0,0.1,0,0.2,0.1,0.2c0.8,1.1,1.7,2.3,2.5,3.4
			c0.1,0.1,0.2,0.1,0.2,0.1c1.3,0.2,2.7,0.5,4,0.7c0.8,0.1,1.1,0.6,1,1.4c-0.2,1.3-0.4,2.7-0.7,4c0,0.2-0.1,0.4-0.1,0.6
			c-0.1,0.5-0.7,0.9-1.2,0.8c-1.5-0.2-3.1-0.5-4.6-0.7c-0.7-0.1-1.1-0.7-0.9-1.3c0.2-1.5,0.5-3,0.7-4.5c0-0.3,0-0.4-0.1-0.6
			c-0.7-1-1.5-2-2.2-3c-0.1-0.1-0.2-0.2-0.3-0.2c-1.4-0.2-2.8-0.5-4.2-0.7c-0.7-0.1-1.1-0.7-1-1.4c0.2-1.5,0.5-3,0.7-4.5
			c0.1-0.6,0.6-1,1.3-0.9c1.5,0.2,3.1,0.5,4.6,0.8C15.4,17.4,15.8,17.9,15.8,18.5z"/>
		<path class="st2" d="M30.2,36.2c-0.5-0.1-1-0.2-1.5-0.2c-1-0.2-2-0.3-2.9-0.5c-0.4-0.1-0.7,0-1,0.3c-0.9,0.7-1.8,1.4-2.8,2
			c-0.2,0.1-0.2,0.2-0.2,0.4c-0.2,1.4-0.5,2.8-0.7,4.2c-0.1,0.7-0.6,1.1-1.3,1c-1.5-0.2-3-0.5-4.5-0.7c-0.7-0.1-1.1-0.6-1-1.3
			c0.2-1.5,0.5-2.9,0.7-4.4c0.1-0.4,0.2-0.8,0.6-1c0.2-0.1,0.5-0.1,0.7-0.1c1.5,0.2,3,0.5,4.5,0.7c0.1,0,0.2,0,0.3-0.1
			c1.1-0.8,2.3-1.6,3.4-2.5c0.1-0.1,0.2-0.2,0.2-0.3c0.2-1.3,0.4-2.7,0.7-4c0.1-0.7,0.6-1.1,1.4-1c1.5,0.2,3,0.5,4.5,0.7
			c0.7,0.1,1.1,0.7,1,1.4c-0.2,1.4-0.5,2.9-0.7,4.3C31.3,35.8,30.9,36.3,30.2,36.2z"/>
		<path class="st2" d="M28.1,19.7c0.6,0.1,1.2,0.2,1.8,0.3c0.9,0.1,1.8,0.3,2.7,0.4c0.8,0.1,1.2,0.7,1,1.4c-0.2,1.5-0.5,3-0.7,4.5
			c0,0.1,0,0.2,0.1,0.2c0.8,1.2,1.7,2.3,2.5,3.4c0.1,0.1,0.2,0.1,0.2,0.1c1.4,0.2,2.7,0.5,4.1,0.7c0.7,0.1,1.1,0.6,1,1.3
			c-0.2,1.5-0.5,3-0.7,4.5c-0.1,0.7-0.6,1.1-1.3,1c-1.4-0.2-2.7-0.4-4.1-0.7c-0.1,0-0.3,0-0.4-0.1c-0.7-0.1-1.1-0.7-1-1.4
			c0.2-1.5,0.4-2.9,0.7-4.4c0.1-0.4,0-0.6-0.2-0.9c-0.7-0.9-1.4-1.9-2.1-2.8c-0.1-0.1-0.2-0.2-0.3-0.2c-1.4-0.2-2.8-0.5-4.3-0.7
			c-0.7-0.1-1.1-0.6-0.9-1.3c0.2-1.5,0.5-3,0.7-4.5C26.9,20,27.4,19.7,28.1,19.7z"/>
		<path class="st2" d="M17.1,23.9c0.1-0.5,0.2-1,0.2-1.5c0.2-1.1,0.4-2.2,0.5-3.2c0.1-0.6,0.6-1,1.2-0.9c1.5,0.2,3,0.5,4.4,0.7
			c0.2,0,0.4,0,0.6-0.1c1.1-0.8,2.1-1.6,3.2-2.4c0.1-0.1,0.2-0.2,0.2-0.4c0.2-1.3,0.4-2.7,0.6-4c0.1-0.6,0.7-1.1,1.3-1
			c1.5,0.2,3.1,0.5,4.6,0.8c0.6,0.1,1,0.7,0.9,1.3c-0.2,1.5-0.5,3-0.7,4.5c-0.1,0.6-0.6,1.1-1.3,0.9c-1.5-0.2-3-0.5-4.6-0.7
			c-0.3-0.1-0.4,0-0.6,0.2c-1,0.7-2,1.4-2.9,2.2c-0.1,0.1-0.2,0.2-0.2,0.4c-0.2,1.4-0.5,2.8-0.7,4.2c-0.1,0.7-0.7,1.1-1.3,1
			c-1.5-0.2-3-0.5-4.5-0.7C17.5,25,17.1,24.5,17.1,23.9z"/>
	</g>
</g>
</svg>
