<svg id="Layer_1" data-name="Layer 1" xmlns="http://www.w3.org/2000/svg" viewBox="0 0 433.13 428.44"><defs><style>.cls-1{fill:#019cb6;}.cls-2{fill:#e74622;}.cls-3{fill:#30a369;}.cls-4{fill:#f8ae01;}</style></defs><title>Concrete_150x150</title><path class="cls-1" d="M566.9,249.6c-1,6.2-2.1,13.4-3.3,20.6-2.2,13.9-4.5,27.7-6.7,41.6a4.28,4.28,0,0,0,.8,2.9c11.1,15.2,22.3,30.5,33.5,45.6a5.46,5.46,0,0,0,3.1,1.8q26.7,4.5,53.4,8.9c10.1,1.7,15.2,8.2,13.6,18.2-2.8,17.8-5.8,35.6-8.7,53.4-.5,2.8-.8,5.6-1.5,8.3a14.7,14.7,0,0,1-16.5,10.8q-30.45-4.95-60.8-9.9c-8.8-1.4-14.1-8.9-12.6-17.7,3.3-20,6.4-40,9.9-59.9a9.69,9.69,0,0,0-1.9-8.4c-9.9-13.2-19.5-26.5-29.3-39.7a7.44,7.44,0,0,0-4.3-2.6c-18.7-3.2-37.4-6.1-56.1-9.3-9.5-1.6-14.4-9-12.8-18.7,3.3-19.9,6.4-39.8,9.7-59.7a14.56,14.56,0,0,1,16.8-12.3q30.75,4.8,61.4,10.1C562,234.9,566.9,240.9,566.9,249.6Z" transform="translate(-466.4 -151.22)"/><path class="cls-2" d="M758.8,484.9c-6-1-13.3-2.1-20.5-3.3-13-2.1-26-3.8-38.8-6.6-5.6-1.2-9.1.4-13.2,3.5-12.1,9.2-24.3,18.1-36.6,26.9a7.39,7.39,0,0,0-3.3,5.6l-9,55.2c-1.5,9.4-8.5,14.7-17.8,13.2q-30-4.65-60-9.8c-8.9-1.5-14.1-8.5-12.7-17.4,3-19.5,6.3-39,9.3-58.5.9-5.8,2.9-10.8,8.5-13.1a18.83,18.83,0,0,1,9-1.5c20.1,3,40.2,6.5,60.3,9.7a6.54,6.54,0,0,0,4.1-.9q22.5-16.2,44.7-32.7a7.44,7.44,0,0,0,2.6-4.3c3-17.8,5.8-35.6,8.7-53.4,1.6-9.4,8.5-14.5,18-13q29.85,4.8,59.7,9.7c9.5,1.6,14.3,9.1,12.7,18.7q-4.8,28.8-9.3,57.6C773.8,479.4,768.1,485,758.8,484.9Z" transform="translate(-466.4 -151.22)"/><path class="cls-3" d="M730.7,264.9c7.4,1.2,15.9,2.5,24.4,3.9,11.9,1.9,23.7,3.9,35.6,5.8,10.1,1.5,15.3,8.7,13.7,18.8l-9.6,59.4a5,5,0,0,0,.8,3.3q16.65,22.95,33.5,45.6a5.46,5.46,0,0,0,3.1,1.8c18.1,3.1,36.2,6,54.3,9,9.1,1.5,14.2,8.5,12.8,17.5q-4.8,30-9.7,60c-1.5,9.3-8.4,14.3-17.7,12.9-18-2.7-36-5.8-54-8.7-1.9-.3-3.8-.6-5.6-.9-9.3-1.4-14.6-9-13.1-18.2,3.2-19.3,5.9-38.7,9.6-57.9,1-5.2-.4-8.4-3.2-12.1-9.3-12.4-18.4-25.1-27.7-37.5a6.7,6.7,0,0,0-4.3-2.6c-18.9-3.3-37.8-6.3-56.7-9.5-8.9-1.5-14-8.5-12.6-17.7,3.2-20.1,6.4-40.2,9.8-60.3C715.4,269.7,721.6,264.7,730.7,264.9Z" transform="translate(-466.4 -151.22)"/><path class="cls-4" d="M584.9,321.1c.9-6,2-12.8,3.1-19.6,2.3-14.3,4.7-28.7,7.1-43a14.56,14.56,0,0,1,16.6-12.2q29.4,4.65,58.8,9.5a8.91,8.91,0,0,0,7.5-1.6q21.3-15.9,42.7-31.3a7.76,7.76,0,0,0,3.3-5.3q4.2-26.7,8.6-53.5a14.82,14.82,0,0,1,16.9-12.7q30.6,4.95,61.2,10c8.6,1.4,13.8,8.8,12.4,17.5q-4.8,30.15-9.8,60.3c-1.4,8.6-8.4,14-17.1,12.6-20.2-3.1-40.4-6.3-60.6-9.9a9.39,9.39,0,0,0-8.5,2.1q-19.5,14.4-39.1,28.7a7.32,7.32,0,0,0-3.2,5.4c-2.9,18.6-6,37.2-9.1,55.8-1.5,9-8.8,14.1-17.9,12.7-20-3.2-40-6.5-60-9.7C590.2,335.5,584.9,329.4,584.9,321.1Z" transform="translate(-466.4 -151.22)"/></svg>