<?xml version="1.0" encoding="UTF-8" standalone="no"?>
<!DOCTYPE svg PUBLIC "-//W3C//DTD SVG 1.1//EN" "http://www.w3.org/Graphics/SVG/1.1/DTD/svg11.dtd">
<svg version="1.1" xmlns="http://www.w3.org/2000/svg" xmlns:xlink="http://www.w3.org/1999/xlink" preserveAspectRatio="xMidYMid meet" viewBox="0 0 100 100" width="100" height="100"><defs><path d="M50 24L28 64L72 64L50 24ZM53 37L52 49L48 49L47 37L53 37ZM47 56C47 54.34 48.34 53 50 53C51.66 53 53 54.34 53 56C53 57.66 51.66 59 50 59C48.34 59 47 57.66 47 56Z" id="d3NvlZERbE"></path><path d="M64 65L73.69 65L50 21.93L26.31 65L60 65L60 63L29.69 63L50 26.08L70.31 63L64 63L64 65Z" id="e3fIvtHfBT"></path><path d="M45.91 36L47.08 50L52.92 50L54.09 36L45.91 36ZM51.08 48L48.92 48L48.09 38L51.91 38L51.08 48Z" id="a2BHyzcYSZ"></path><path d="M46 56C46 58.21 47.79 60 50 60C52.21 60 54 58.21 54 56C54 53.79 52.21 52 50 52C47.79 52 46 53.79 46 56ZM48 56C48 54.9 48.9 54 50 54C51.1 54 52 54.9 52 56C52 57.1 51.1 58 50 58C48.9 58 48 57.1 48 56Z" id="cyTTLKlZw"></path><path d="M0 0L100 0L100 100L0 100L0 0Z" id="g19FMHIzjo"></path></defs><g><g><g><use xlink:href="#d3NvlZERbE" opacity="1" fill="#d6d6d6" fill-opacity="1"></use><g><use xlink:href="#d3NvlZERbE" opacity="1" fill-opacity="0" stroke="#000000" stroke-width="1" stroke-opacity="0"></use></g></g><g><use xlink:href="#e3fIvtHfBT" opacity="1" fill="#666666" fill-opacity="1"></use><g><use xlink:href="#e3fIvtHfBT" opacity="1" fill-opacity="0" stroke="#000000" stroke-width="1" stroke-opacity="0"></use></g></g><g><use xlink:href="#a2BHyzcYSZ" opacity="1" fill="#666666" fill-opacity="1"></use><g><use xlink:href="#a2BHyzcYSZ" opacity="1" fill-opacity="0" stroke="#000000" stroke-width="1" stroke-opacity="0"></use></g></g><g><use xlink:href="#cyTTLKlZw" opacity="1" fill="#666666" fill-opacity="1"></use><g><use xlink:href="#cyTTLKlZw" opacity="1" fill-opacity="0" stroke="#000000" stroke-width="1" stroke-opacity="0"></use></g></g><g><use xlink:href="#g19FMHIzjo" opacity="1" fill="#000000" fill-opacity="0"></use><g><use xlink:href="#g19FMHIzjo" opacity="1" fill-opacity="0" stroke="#000000" stroke-width="1" stroke-opacity="0"></use></g></g></g></g></svg>